<svg width="366" height="58" viewBox="0 0 366 58" fill="none" xmlns="http://www.w3.org/2000/svg">
<path d="M80.2177 36.47V36.8784C80.2177 39.3857 80.6844 40.7268 81.7922 41.368C83.1912 42.1841 86.2235 42.5341 91.9375 42.5341C96.7771 42.5341 99.8094 42.3591 104.008 41.8346C106.223 41.543 107.331 41.1346 108.031 40.3185C108.789 39.3857 109.197 38.2195 109.197 36.995C109.197 34.7206 108.206 33.6127 105.523 33.0299C103.891 32.6799 103.833 32.6799 93.2209 32.6216H87.6229C79.4011 32.5633 76.1943 31.9221 74.037 29.9393C72.1714 28.3065 71.2964 25.8581 71.2964 22.4174C71.2964 18.1028 72.3459 14.5461 74.212 12.9133C76.836 10.4643 82.7834 9.53149 95.6115 9.53149C103.425 9.53149 107.623 9.82316 110.305 10.6393C115.145 12.0383 116.835 14.6627 116.835 20.6685V21.4263H108.09C108.031 19.1523 107.448 17.9862 106.223 17.4028C104.591 16.645 100.859 16.1784 96.5443 16.1784C89.1974 16.1784 84.0662 16.645 82.3167 17.5195C80.9172 18.1612 80.2177 19.5018 80.2177 21.3096C80.2177 23.0008 80.7422 24.1086 81.85 24.7502C83.1912 25.5081 85.4073 25.7414 91.5297 25.7414H98.1183C109.78 25.7414 113.337 26.3825 115.786 29.0065C117.419 30.6971 118.177 33.2633 118.177 37.1112C118.177 41.1935 117.302 43.9919 115.378 45.8581C112.813 48.3065 107.798 49.1232 94.6782 49.1232C80.6844 49.1232 76.311 48.4815 73.862 46.1492C72.1125 44.4581 71.3547 42.1263 71.3547 38.4523C71.3547 38.1028 71.3547 37.2278 71.4131 36.47H80.2177Z" fill="white"/>
<path d="M136.31 9.88123H127.33V48.7734H136.31V9.88123Z" fill="white"/>
<path d="M146.747 9.88123H188.088V16.7031H155.61V25.9161H186.514V32.0385H155.61V41.951H188.438V48.7734H146.747V9.88123Z" fill="white"/>
<path d="M197.184 9.88123H211.061L229.37 39.1521L247.621 9.88123H261.323V48.7734H252.519L252.868 16.762L232.752 48.7734H225.697L205.697 16.762L205.93 48.7734H197.184V9.88123Z" fill="white"/>
<path d="M271.76 9.8811H313.101V16.703H280.623V25.916H311.527V32.0384H280.623V41.9509H313.451V48.7733H271.76V9.8811Z" fill="white"/>
<path d="M337.94 17.1698H319.631V9.88123H365.17V17.1698H346.92V48.7734H337.94V17.1698Z" fill="white"/>
<path d="M7.91597 49.0869H0.00439453V29.308H7.91597V49.0869Z" fill="url(#paint0_linear_224_13124)"/>
<path d="M55.4409 29.3081H47.5183V9.50164H55.4409V29.3081Z" fill="url(#paint1_linear_224_13124)"/>
<path d="M39.9752 2.832L-4.81619e-05 9.50051L7.93389 17.4442L55.4527 9.4992L52.9215 6.96262C50.1238 4.19166 46.2986 2.61558 42.4159 2.62598C41.6323 2.65183 40.7941 2.68732 39.9752 2.832Z" fill="url(#paint2_linear_224_13124)"/>
<path d="M7.92085 21.3882L0.000885064 29.3082L47.5196 37.2282L55.4395 29.3082L7.92085 21.3882Z" fill="white"/>
<path d="M0.000488281 49.1186L2.55068 51.6688C5.93244 55.0506 10.7002 56.5474 15.4125 55.7713L55.4393 49.1186L47.5116 41.1909L0.000488281 49.1186Z" fill="url(#paint3_linear_224_13124)"/>
<defs>
<linearGradient id="paint0_linear_224_13124" x1="3.96034" y1="49.0871" x2="3.96034" y2="29.3081" gradientUnits="userSpaceOnUse">
<stop stop-color="#F4F5F6"/>
<stop offset="1" stop-color="#949DAB"/>
</linearGradient>
<linearGradient id="paint1_linear_224_13124" x1="51.4797" y1="29.3082" x2="51.4797" y2="9.50178" gradientUnits="userSpaceOnUse">
<stop stop-color="#F4F5F6"/>
<stop offset="1" stop-color="#929BA9"/>
</linearGradient>
<linearGradient id="paint2_linear_224_13124" x1="0.839184" y1="14.2507" x2="55.4325" y2="4.60544" gradientUnits="userSpaceOnUse">
<stop stop-color="#F9FAFA"/>
<stop offset="1" stop-color="#828C9E"/>
</linearGradient>
<linearGradient id="paint3_linear_224_13124" x1="0.000488281" y1="48.5896" x2="55.4393" y2="48.5896" gradientUnits="userSpaceOnUse">
<stop stop-color="#848E9F"/>
<stop offset="1" stop-color="#F8F8F9"/>
</linearGradient>
</defs>
</svg>
